# xmcd CD database file
#
# Track frame offsets:
#	150
#	38090
#	44659
#	71819
#	106183
#	145692
#	180067
#	212747
#
# Disc length: 3300 seconds
#
# Revision: 0
# Processed by: cddbd v1.5.1PL0 Copyright (c) Steve Scherf et al.
# Submitted via: CDex 1.51
#
DISCID=6a0ce208
DTITLE=Ettrick - 2005-06-10
DYEAR=2005
DGENRE=Jazz
TTITLE0=1
TTITLE1=2
TTITLE2=3
TTITLE3=4
TTITLE4=5
TTITLE5=6
TTITLE6=7
TTITLE7=8
EXTD=YEAR: 2005
EXTT0=
EXTT1=
EXTT2=
EXTT3=
EXTT4=
EXTT5=
EXTT6=
EXTT7=
PLAYORDER=
